<svg xmlns="http://www.w3.org/2000/svg" xmlns:xlink="http://www.w3.org/1999/xlink" viewBox="0 0 485.63 323.11"><defs><style>.cls-1{fill:#161616;}.cls-2{fill:#262525;}.cls-3{fill:#0a0a0a;}.cls-4{fill:#020202;}.cls-5{fill:#494946;}.cls-6{fill:#eae42a;}.cls-7{fill:#191609;}.cls-8{fill:#eae78f;}.cls-9{fill:#960513;}.cls-10{fill:url(#linear-gradient);}.cls-11{fill:url(#linear-gradient-2);}.cls-12{fill:url(#linear-gradient-3);}.cls-13{fill:url(#linear-gradient-4);}.cls-14{fill:url(#linear-gradient-5);}.cls-15{fill:url(#linear-gradient-6);}.cls-16{fill:url(#linear-gradient-7);}.cls-17{fill:url(#linear-gradient-8);}.cls-18{fill:#baa599;}.cls-19{fill:#77625b;}.cls-20{fill:#5b463e;}.cls-21{fill:#75675f;}.cls-21,.cls-22{stroke:#000;}.cls-21,.cls-22,.cls-23,.cls-24,.cls-25,.cls-26{stroke-miterlimit:10;}.cls-22{fill:#332a25;}.cls-23,.cls-24,.cls-25,.cls-26{fill:none;}.cls-23{stroke:#473d37;}.cls-24{stroke:#82736b;}.cls-25{stroke:#5b463e;}.cls-26{stroke:#77625b;}</style><linearGradient id="linear-gradient" x1="111.48" y1="235.74" x2="143.87" y2="235.74" gradientUnits="userSpaceOnUse"><stop offset="0.34" stop-color="#6d6648"/><stop offset="0.63" stop-color="#fff"/><stop offset="0.84" stop-color="#6d6648"/></linearGradient><linearGradient id="linear-gradient-2" x1="106.08" y1="238.65" x2="134.4" y2="238.65" xlink:href="#linear-gradient"/><linearGradient id="linear-gradient-3" x1="101.01" y1="241" x2="120.88" y2="241" xlink:href="#linear-gradient"/><linearGradient id="linear-gradient-4" x1="98.74" y1="243.16" x2="107.88" y2="243.16" xlink:href="#linear-gradient"/><linearGradient id="linear-gradient-5" x1="275.22" y1="278.38" x2="285.15" y2="278.38" gradientTransform="translate(624.55 84.97) rotate(105.87)" xlink:href="#linear-gradient"/><linearGradient id="linear-gradient-6" x1="282.39" y1="273.91" x2="293.51" y2="273.91" gradientTransform="translate(630.15 71.81) rotate(105.87)" xlink:href="#linear-gradient"/><linearGradient id="linear-gradient-7" x1="290.76" y1="271.53" x2="301.88" y2="271.53" gradientTransform="translate(638.51 60.74) rotate(105.87)" xlink:href="#linear-gradient"/><linearGradient id="linear-gradient-8" x1="300.31" y1="271.25" x2="310.24" y2="271.25" gradientTransform="translate(649.64 51.75) rotate(105.87)" xlink:href="#linear-gradient"/></defs><title>boss</title><g id="Layer_6" data-name="Layer 6"><path class="cls-1" d="M125.49,213.31l-21.74,44.92s68.11,63.76,143.46,0L225.48,209Z" transform="translate(-9.37 -65.5)"/><path class="cls-2" d="M45.79,172.73S99.4,145.2,124,155.34c0,0,5.8-31.88,23.19-44.92s0-44.92,0-44.92S180.55,66.95,190.7,93c0,0,37.68,40.57,24.63,66.66,0,0,60.86-10.14,73.9,13,0,0,24.63,55.07,18.84,81.15,0,0-15.94,15.94-36.23,11.59l-17.39-55.07s-82.6,55.07-146.36,5.8c0,0-24.63-2.9-43.47,5.8,0,0,52.17,24.63,59.41,53.62L98,301.7s-71-29-78.25-65.21S45.79,172.73,45.79,172.73Z" transform="translate(-9.37 -65.5)"/><path class="cls-3" d="M168.24,102.45s4.35-20.29-4.35-26.08,23.19,13,24.63,20.29,15.94,17.39,17.39,27.53c0,0-20.29-20.29-36.23-14.49Z" transform="translate(-9.37 -65.5)"/><path class="cls-3" d="M120.42,169.11s4.35,47.82,42,53.62C162.44,222.73,113.17,228.52,120.42,169.11Z" transform="translate(-9.37 -65.5)"/><path class="cls-3" d="M216.06,164.76s4.35,20.29-5.8,31.88C210.26,196.64,230.55,182.15,216.06,164.76Z" transform="translate(-9.37 -65.5)"/><path class="cls-3" d="M63.9,222.73s-21.74-4.35-24.63-15.94C39.27,206.79,46.51,232.87,63.9,222.73Z" transform="translate(-9.37 -65.5)"/><path class="cls-3" d="M68.25,227.48s-20.46,3.45-23.19,12.63C45.06,240.12,51.88,219.44,68.25,227.48Z" transform="translate(-9.37 -65.5)"/><path class="cls-3" d="M71.15,216.41S58,213.79,56.27,206.79C56.27,206.79,60.65,222.53,71.15,216.41Z" transform="translate(-9.37 -65.5)"/><path class="cls-3" d="M258.08,206.79s11.59-7.25,15.94-17.39C274,189.4,278.37,203.89,258.08,206.79Z" transform="translate(-9.37 -65.5)"/><path class="cls-3" d="M259.82,208s10.24.42,17.23-4C277,204,273.61,214.78,259.82,208Z" transform="translate(-9.37 -65.5)"/><path class="cls-4" d="M226.2,228.52l13,27.53S221.85,256.06,226.2,228.52Z" transform="translate(-9.37 -65.5)"/><path class="cls-3" d="M99.06,299.93l22.43-21.12S124.42,293.66,99.06,299.93Z" transform="translate(-9.37 -65.5)"/><polygon class="cls-5" points="0.54 264.05 446.08 167.4 456.89 153.4 485.63 159.09 462.84 181.24 445.67 176.08 0 275.63 0.54 264.05"/><path class="cls-6" d="M424.92,373.67c26.2-65.37-3.22-96.5-21.65-108.76a62.88,62.88,0,0,0-12.59-6.68l59.41-13c48.68,54.4-30,141.35-31.85,143.42Q422,380.85,424.92,373.67Z" transform="translate(-9.37 -65.5)"/><polygon class="cls-7" points="450.14 170.27 471.88 163.02 460.28 174.62 450.14 170.27"/><polygon class="cls-7" points="454.71 166.24 462.08 159.9 468.76 162.7 454.71 166.24"/><path class="cls-8" d="M434.15,261.13l13-4.35s21.74,39.13-7.25,88.4C439.94,345.18,461.68,290.11,434.15,261.13Z" transform="translate(-9.37 -65.5)"/><path class="cls-9" d="M439.22,353.15s-6.75,10.71-14.3,20.52c26.2-65.37-3.22-96.5-21.65-108.76l4.07-3.06s36.23,1.45,20.29,15.94c0,0,23.19,8.69,11.59,23.19a132.48,132.48,0,0,1,6.32,24.43,73.3,73.3,0,0,1,.72,7.48C446.61,341.5,445,349.44,439.22,353.15Z" transform="translate(-9.37 -65.5)"/><polygon class="cls-10" points="115.83 222.98 143.87 244.05 139.63 248.5 111.48 223.08 115.83 222.98"/><polygon class="cls-11" points="110.38 224.36 134.41 249.92 129.46 253.58 106.08 223.72 110.38 224.36"/><polygon class="cls-12" points="104.49 228.69 120.88 252.56 116.26 254.53 101.01 227.46 104.49 228.69"/><polygon class="cls-13" points="100.79 235.11 107.88 252.82 104.65 252.7 98.74 233.49 100.79 235.11"/><rect class="cls-14" x="272.21" y="275.48" width="15.94" height="5.8" transform="translate(79.64 558.49) rotate(-105.87)"/><rect class="cls-15" x="277.81" y="271.01" width="20.29" height="5.8" transform="translate(93.83 560.28) rotate(-105.87)"/><rect class="cls-16" x="286.17" y="268.64" width="20.29" height="5.8" transform="translate(106.77 565.29) rotate(-105.87)"/><rect class="cls-17" x="297.3" y="268.35" width="15.94" height="5.8" transform="translate(118.45 573.55) rotate(-105.87)"/></g><g id="Layer_9" data-name="Layer 9"><path class="cls-18" d="M196.17,147.5a37.22,37.22,0,0,1-2.23,10c-1,2.53-2.57,4.63-4.77,5l-1,15s-3,0-2,5c0,0-4,2-3,6l-3,4s0,6.14-3.36,9.68a7.85,7.85,0,0,1-1.64,1.32,9.29,9.29,0,0,0-3-6s0,1-1,0H167.5c-1,1-1,0-1,0a9.29,9.29,0,0,0-3,6c-5-3-5-11-5-11l-3-4c1-4-3-6-3-6,1-5-2-5-2-5l-1-15c-6-1-7-15-7-15-3-3,0-8,0-8a4.37,4.37,0,0,0,3-4c13,3,20-19,20-19,1-2,3.83-2,3.83-2s2.84,0,3.84,2c0,0,7,22,20,19a4.37,4.37,0,0,0,3,4S199.17,144.5,196.17,147.5Z" transform="translate(-9.37 -65.5)"/><path class="cls-19" d="M150.5,155.5s-7-8-7-12c0,0-1-5,5-1,0,0,2,7,3,7C151.5,149.5,152.5,153.5,150.5,155.5Z" transform="translate(-9.37 -65.5)"/><path class="cls-19" d="M187.69,155.5s7-8,7-12c0,0,1-5-5-1,0,0-2,7-3,7C186.69,149.5,185.69,153.5,187.69,155.5Z" transform="translate(-9.37 -65.5)"/><path class="cls-20" d="M146,141.29s.06,10,2.95,11.33l1.37-3.89S146.65,145.37,146,141.29Z" transform="translate(-9.37 -65.5)"/><path class="cls-20" d="M192,141.32s-.19,10-3.1,11.29l-1.32-3.91S191.37,145.38,192,141.32Z" transform="translate(-9.37 -65.5)"/><polygon class="cls-20" points="145.11 79.58 146.55 78.15 147.99 81.02 145.11 79.58"/><polygon class="cls-20" points="175.15 79.58 173.72 78.15 172.28 81.02 175.15 79.58"/><path class="cls-20" d="M162.4,160,160,176.85l3.61,3.61,2.41,12V178.06S161.19,167.22,162.4,160Z" transform="translate(-9.37 -65.5)"/><path class="cls-20" d="M174.6,160,177,176.85l-3.61,3.61-2.41,12V178.06S175.81,167.22,174.6,160Z" transform="translate(-9.37 -65.5)"/><path class="cls-21" d="M144.5,134.5s-16-16-18-15c0,0-14-12-21,15,0,0-4,11-9,12,0,0-4,31-23,34,0,0-24,2-36-27,0,0,30,15,43-4,0,0-1-48,14-56l13-10s25-12,58,32C165.5,115.5,159.5,138.5,144.5,134.5Z" transform="translate(-9.37 -65.5)"/><path class="cls-22" d="M153.5,131.5s-40-41-49-39,2,22,2,22-12,9-7,17c0,0-8,22-21,24,0,0,13,2,17-6l2-3s8-6,9-12c0,0,5-28,22-16,0,0,20,12,17,16C145.5,134.5,151.5,134.5,153.5,131.5Z" transform="translate(-9.37 -65.5)"/><path class="cls-23" d="M150.5,129.5s9-2,10-18" transform="translate(-9.37 -65.5)"/><path class="cls-23" d="M146.5,126.5s9-2,10-18" transform="translate(-9.37 -65.5)"/><path class="cls-23" d="M142.5,121.5s9-2,10-18" transform="translate(-9.37 -65.5)"/><path class="cls-23" d="M138.5,117.5s9-2,10-18" transform="translate(-9.37 -65.5)"/><path class="cls-23" d="M134.5,112.5s9-2,10-18" transform="translate(-9.37 -65.5)"/><path class="cls-23" d="M129.5,109.5s9-2,10-18" transform="translate(-9.37 -65.5)"/><path class="cls-23" d="M124.5,106.5s9-2,10-18" transform="translate(-9.37 -65.5)"/><path class="cls-23" d="M119.5,103.5s9-2,10-18" transform="translate(-9.37 -65.5)"/><path class="cls-23" d="M115.5,99.5s7.65-1.7,8.5-15.3" transform="translate(-9.37 -65.5)"/><path class="cls-23" d="M112,96s4.5-1.44,5-13" transform="translate(-9.37 -65.5)"/><path class="cls-23" d="M91.5,98.5s10,17,14,16" transform="translate(-9.37 -65.5)"/><path class="cls-23" d="M87.5,104.5s10,17,14,16" transform="translate(-9.37 -65.5)"/><path class="cls-23" d="M85.5,112.5S94.43,126.81,98,126" transform="translate(-9.37 -65.5)"/><path class="cls-23" d="M83.5,118.5S91.71,132.81,95,132" transform="translate(-9.37 -65.5)"/><path class="cls-23" d="M83.5,125.5S89.57,137.69,92,137" transform="translate(-9.37 -65.5)"/><path class="cls-23" d="M81.5,132.5S87.57,142.57,90,142" transform="translate(-9.37 -65.5)"/><path class="cls-24" d="M82.5,171.5s-4-10-6-11" transform="translate(-9.37 -65.5)"/><path class="cls-24" d="M78.5,173.5s-4-10-6-11" transform="translate(-9.37 -65.5)"/><path class="cls-24" d="M72.5,176.5s-4-10-6-11" transform="translate(-9.37 -65.5)"/><path class="cls-24" d="M66.5,175.5s-4-10-6-11" transform="translate(-9.37 -65.5)"/><path class="cls-24" d="M60.5,173.5s-4-10-6-11" transform="translate(-9.37 -65.5)"/><path class="cls-21" d="M194.5,135.5s16-16,18-15c0,0,14-12,21,15,0,0,4,11,9,12,0,0,4,31,23,34,0,0,24,2,36-27,0,0-30,15-43-4,0,0,1-48-14-56l-13-10s-25-12-58,32C173.5,116.5,179.5,139.5,194.5,135.5Z" transform="translate(-9.37 -65.5)"/><path class="cls-22" d="M185.5,132.5s40-41,49-39-2,22-2,22,12,9,7,17c0,0,8,22,21,24,0,0-13,2-17-6l-2-3s-8-6-9-12c0,0-5-28-22-16,0,0-20,12-17,16C193.5,135.5,187.5,135.5,185.5,132.5Z" transform="translate(-9.37 -65.5)"/><path class="cls-23" d="M188.5,130.5s-9-2-10-18" transform="translate(-9.37 -65.5)"/><path class="cls-23" d="M192.5,127.5s-9-2-10-18" transform="translate(-9.37 -65.5)"/><path class="cls-23" d="M196.5,122.5s-9-2-10-18" transform="translate(-9.37 -65.5)"/><path class="cls-23" d="M200.5,118.5s-9-2-10-18" transform="translate(-9.37 -65.5)"/><path class="cls-23" d="M204.5,113.5s-9-2-10-18" transform="translate(-9.37 -65.5)"/><path class="cls-23" d="M209.5,110.5s-9-2-10-18" transform="translate(-9.37 -65.5)"/><path class="cls-23" d="M214.5,107.5s-9-2-10-18" transform="translate(-9.37 -65.5)"/><path class="cls-23" d="M219.5,104.5s-9-2-10-18" transform="translate(-9.37 -65.5)"/><path class="cls-23" d="M223.5,100.5s-7.65-1.7-8.5-15.3" transform="translate(-9.37 -65.5)"/><path class="cls-23" d="M227,97s-4.5-1.44-5-13" transform="translate(-9.37 -65.5)"/><path class="cls-23" d="M247.5,99.5s-10,17-14,16" transform="translate(-9.37 -65.5)"/><path class="cls-23" d="M251.5,105.5s-10,17-14,16" transform="translate(-9.37 -65.5)"/><path class="cls-23" d="M253.5,113.5S244.57,127.81,241,127" transform="translate(-9.37 -65.5)"/><path class="cls-23" d="M255.5,119.5S247.29,133.81,244,133" transform="translate(-9.37 -65.5)"/><path class="cls-23" d="M255.5,126.5S249.43,138.69,247,138" transform="translate(-9.37 -65.5)"/><path class="cls-23" d="M257.5,133.5s-6.07,10.07-8.5,9.47" transform="translate(-9.37 -65.5)"/><path class="cls-24" d="M256.5,172.5s4-10,6-11" transform="translate(-9.37 -65.5)"/><path class="cls-24" d="M260.5,174.5s4-10,6-11" transform="translate(-9.37 -65.5)"/><path class="cls-24" d="M266.5,177.5s4-10,6-11" transform="translate(-9.37 -65.5)"/><path class="cls-24" d="M272.5,176.5s4-10,6-11" transform="translate(-9.37 -65.5)"/><path class="cls-24" d="M278.5,174.5s4-10,6-11" transform="translate(-9.37 -65.5)"/><path class="cls-25" d="M143,148s6,11,7,9" transform="translate(-9.37 -65.5)"/><path class="cls-25" d="M195,148s-6,11-7,9" transform="translate(-9.37 -65.5)"/><path class="cls-19" d="M193.94,157.5c-1,2.53-2.57,4.63-4.77,5l-1,15s-3,0-2,5c0,0-4,2-3,6l-3,4s0,6.14-3.36,9.68l-.31-3.68a22.36,22.36,0,0,1,3-16c5-8,4-21,4-21L186,160Z" transform="translate(-9.37 -65.5)"/><path class="cls-19" d="M144.1,157.5c1,2.53,2.57,4.63,4.77,5l1,15s3,0,2,5c0,0,4,2,3,6l3,4s0,6.14,3.36,9.68l.31-3.68a22.36,22.36,0,0,0-3-16c-5-8-4-21-4-21L152,160Z" transform="translate(-9.37 -65.5)"/><path class="cls-26" d="M146,137s16,3,21-21" transform="translate(-9.37 -65.5)"/><path class="cls-26" d="M193,138s-16,3-21-21" transform="translate(-9.37 -65.5)"/></g></svg>