<svg xmlns="http://www.w3.org/2000/svg" xmlns:xlink="http://www.w3.org/1999/xlink" viewBox="0 0 485.63 323.11"><defs><style>.cls-1{fill:#161616;}.cls-2{fill:#262525;}.cls-3{fill:#0a0a0a;}.cls-4{fill:#020202;}.cls-5{fill:url(#linear-gradient);}.cls-6{fill:#d6d6d4;}.cls-7{fill:#191609;}.cls-8{fill:#999998;}.cls-9{fill:#960513;}.cls-10{fill:url(#linear-gradient-2);}.cls-11{fill:url(#linear-gradient-3);}.cls-12{fill:url(#linear-gradient-4);}.cls-13{fill:url(#linear-gradient-5);}.cls-14{fill:url(#linear-gradient-6);}.cls-15{fill:url(#linear-gradient-7);}.cls-16{fill:url(#linear-gradient-8);}.cls-17{fill:url(#linear-gradient-9);}.cls-18{fill:#fff;}.cls-18,.cls-19,.cls-20{stroke:#000;stroke-miterlimit:10;}.cls-19{fill:#e5deb5;}.cls-20{fill:none;}.cls-21{fill:#6d6648;}</style><linearGradient id="linear-gradient" y1="214.51" x2="485.63" y2="214.51" gradientUnits="userSpaceOnUse"><stop offset="0.07" stop-color="#423b17"/><stop offset="0.52" stop-color="#6d6232"/><stop offset="0.9" stop-color="#423b17"/></linearGradient><linearGradient id="linear-gradient-2" x1="111.48" y1="235.74" x2="143.87" y2="235.74" gradientUnits="userSpaceOnUse"><stop offset="0.34" stop-color="#6d6648"/><stop offset="0.63" stop-color="#fff"/><stop offset="0.84" stop-color="#6d6648"/></linearGradient><linearGradient id="linear-gradient-3" x1="106.08" y1="238.65" x2="134.4" y2="238.65" xlink:href="#linear-gradient-2"/><linearGradient id="linear-gradient-4" x1="101.01" y1="241" x2="120.88" y2="241" xlink:href="#linear-gradient-2"/><linearGradient id="linear-gradient-5" x1="98.74" y1="243.16" x2="107.88" y2="243.16" xlink:href="#linear-gradient-2"/><linearGradient id="linear-gradient-6" x1="275.22" y1="278.38" x2="285.15" y2="278.38" gradientTransform="translate(624.55 84.97) rotate(105.87)" xlink:href="#linear-gradient-2"/><linearGradient id="linear-gradient-7" x1="282.39" y1="273.91" x2="293.51" y2="273.91" gradientTransform="translate(630.15 71.81) rotate(105.87)" xlink:href="#linear-gradient-2"/><linearGradient id="linear-gradient-8" x1="290.76" y1="271.53" x2="301.88" y2="271.53" gradientTransform="translate(638.51 60.74) rotate(105.87)" xlink:href="#linear-gradient-2"/><linearGradient id="linear-gradient-9" x1="300.31" y1="271.25" x2="310.24" y2="271.25" gradientTransform="translate(649.64 51.75) rotate(105.87)" xlink:href="#linear-gradient-2"/></defs><title>enemy</title><g id="Layer_6" data-name="Layer 6"><path class="cls-1" d="M125.49,213.31l-21.74,44.92s68.11,63.76,143.46,0L225.48,209Z" transform="translate(-9.37 -65.5)"/><path class="cls-2" d="M45.79,172.73S99.4,145.2,124,155.34c0,0,5.8-31.88,23.19-44.92s0-44.92,0-44.92S180.55,66.95,190.7,93c0,0,37.68,40.57,24.63,66.66,0,0,60.86-10.14,73.9,13,0,0,24.63,55.07,18.84,81.15,0,0-15.94,15.94-36.23,11.59l-17.39-55.07s-82.6,55.07-146.36,5.8c0,0-24.63-2.9-43.47,5.8,0,0,52.17,24.63,59.41,53.62L98,301.7s-71-29-78.25-65.21S45.79,172.73,45.79,172.73Z" transform="translate(-9.37 -65.5)"/><path class="cls-3" d="M168.24,102.45s4.35-20.29-4.35-26.08,23.19,13,24.63,20.29,15.94,17.39,17.39,27.53c0,0-20.29-20.29-36.23-14.49Z" transform="translate(-9.37 -65.5)"/><path class="cls-3" d="M120.42,169.11s4.35,47.82,42,53.62C162.44,222.73,113.17,228.52,120.42,169.11Z" transform="translate(-9.37 -65.5)"/><path class="cls-3" d="M216.06,164.76s4.35,20.29-5.8,31.88C210.26,196.64,230.55,182.15,216.06,164.76Z" transform="translate(-9.37 -65.5)"/><path class="cls-3" d="M63.9,222.73s-21.74-4.35-24.63-15.94C39.27,206.79,46.51,232.87,63.9,222.73Z" transform="translate(-9.37 -65.5)"/><path class="cls-3" d="M68.25,227.48s-20.46,3.45-23.19,12.63C45.06,240.12,51.88,219.44,68.25,227.48Z" transform="translate(-9.37 -65.5)"/><path class="cls-3" d="M71.15,216.41S58,213.79,56.27,206.79C56.27,206.79,60.65,222.53,71.15,216.41Z" transform="translate(-9.37 -65.5)"/><path class="cls-3" d="M258.08,206.79s11.59-7.25,15.94-17.39C274,189.4,278.37,203.89,258.08,206.79Z" transform="translate(-9.37 -65.5)"/><path class="cls-3" d="M259.82,208s10.24.42,17.23-4C277,204,273.61,214.78,259.82,208Z" transform="translate(-9.37 -65.5)"/><path class="cls-4" d="M226.2,228.52l13,27.53S221.85,256.06,226.2,228.52Z" transform="translate(-9.37 -65.5)"/><path class="cls-3" d="M99.06,299.93l22.43-21.12S124.42,293.66,99.06,299.93Z" transform="translate(-9.37 -65.5)"/><polygon class="cls-5" points="0.54 264.05 446.08 167.4 456.89 153.4 485.63 159.09 462.84 181.24 445.67 176.08 0 275.63 0.54 264.05"/><path class="cls-6" d="M424.92,373.67c26.2-65.37-3.22-96.5-21.65-108.76a62.88,62.88,0,0,0-12.59-6.68l59.41-13c48.68,54.4-30,141.35-31.85,143.42Q422,380.85,424.92,373.67Z" transform="translate(-9.37 -65.5)"/><polygon class="cls-7" points="450.14 170.27 471.88 163.02 460.28 174.62 450.14 170.27"/><polygon class="cls-7" points="454.71 166.24 462.08 159.9 468.76 162.7 454.71 166.24"/><path class="cls-8" d="M434.15,261.13l13-4.35s21.74,39.13-7.25,88.4C439.94,345.18,461.68,290.11,434.15,261.13Z" transform="translate(-9.37 -65.5)"/><path class="cls-9" d="M439.22,353.15s-6.75,10.71-14.3,20.52c26.2-65.37-3.22-96.5-21.65-108.76l4.07-3.06s36.23,1.45,20.29,15.94c0,0,23.19,8.69,11.59,23.19a132.48,132.48,0,0,1,6.32,24.43,73.3,73.3,0,0,1,.72,7.48C446.61,341.5,445,349.44,439.22,353.15Z" transform="translate(-9.37 -65.5)"/><polygon class="cls-10" points="115.83 222.98 143.87 244.05 139.63 248.5 111.48 223.08 115.83 222.98"/><polygon class="cls-11" points="110.38 224.36 134.41 249.92 129.46 253.58 106.08 223.72 110.38 224.36"/><polygon class="cls-12" points="104.49 228.69 120.88 252.56 116.26 254.53 101.01 227.46 104.49 228.69"/><polygon class="cls-13" points="100.79 235.11 107.88 252.82 104.65 252.7 98.74 233.49 100.79 235.11"/><rect class="cls-14" x="272.21" y="275.48" width="15.94" height="5.8" transform="translate(79.64 558.49) rotate(-105.87)"/><rect class="cls-15" x="277.81" y="271.01" width="20.29" height="5.8" transform="translate(93.83 560.28) rotate(-105.87)"/><rect class="cls-16" x="286.17" y="268.64" width="20.29" height="5.8" transform="translate(106.77 565.29) rotate(-105.87)"/><rect class="cls-17" x="297.3" y="268.35" width="15.94" height="5.8" transform="translate(118.45 573.55) rotate(-105.87)"/><path class="cls-18" d="M197.94,172.73s-8.69-50.72-26.08-47.82-36.23,27.53-27.53,52.17c0,0,8.69-42,21.74-46.37S187.8,127.81,197.94,172.73Z" transform="translate(-9.37 -65.5)"/><path class="cls-19" d="M135.57,144.42S143.3,120,174.21,120s36.06,21.89,36.06,21.89,0,14.16-3.86,20.6l3.86,6.44-3.86,11.59s-1.29,9-6.44,14.16c0,0,2.58,1.29-3.86,0,0,0-11.59,0-6.44,10.3l1.29,3.86s-14.16,23.18-32.19,0c0,0,6.44-12.88-10.3-14.16,0,0-9-3.86-9-14.16a17.52,17.52,0,0,0,0-9l2.58-7.73S133,149.57,135.57,144.42Z" transform="translate(-9.37 -65.5)"/><path d="M145.88,175.32s19.32-3.86,24.47,6.44C170.34,181.76,148.45,203.65,145.88,175.32Z" transform="translate(-9.37 -65.5)"/><path d="M201.25,175.32s-19.32-3.86-24.47,6.44C176.78,181.76,198.67,203.65,201.25,175.32Z" transform="translate(-9.37 -65.5)"/><path d="M172.92,202.36s-3.86-2.58-5.15,0c0,0-1.29-11.59,6.44-12.88,0,0,9,3.86,6.44,12.88,0,0-2.58-2.58-3.86,0l-2.58-7.73Z" transform="translate(-9.37 -65.5)"/><path class="cls-20" d="M189.66,206.23s-2.58,0-1.29,3.86c0,0-5.15-2.58-3.86,3.86,0,0-5.15-5.15-5.15,2.58,0,0-2.58-6.44-5.15,0,0,0-2.58-5.15-5.15,0,0,0,1.29-5.15-2.58-2.58,0,0,0-5.15-3.86-2.58,0,0,0-5.15-2.58-2.58" transform="translate(-9.37 -65.5)"/><path class="cls-21" d="M201.25,135.4s1.29,25.75-9,33.48c0,0,10.3,0,11.59,3.86,0,0,0,14.16-6.44,16.74,0,0,10.3-6.44,9-18,0,0,1.29-5.15-2.58-7.73C203.82,163.73,211.55,135.4,201.25,135.4Z" transform="translate(-9.37 -65.5)"/><path class="cls-21" d="M143.3,165l-2.58,6.44s2.58,5.15,1.29,7.73l1.29-7.73S145.88,166.31,143.3,165Z" transform="translate(-9.37 -65.5)"/></g></svg>