<svg id="Layer_1" data-name="Layer 1" xmlns="http://www.w3.org/2000/svg" viewBox="0 0 478.66 219.89"><defs><style>.cls-1{fill:#baa599;}.cls-2{fill:#77625b;}.cls-3{fill:#5b463e;}.cls-4{fill:#75675f;}.cls-4,.cls-5{stroke:#000;}.cls-4,.cls-5,.cls-6,.cls-7,.cls-8,.cls-9{stroke-miterlimit:10;}.cls-5{fill:#332a25;}.cls-6,.cls-7,.cls-8,.cls-9{fill:none;}.cls-6{stroke:#473d37;}.cls-7{stroke:#82736b;}.cls-8{stroke:#5b463e;}.cls-9{stroke:#77625b;}</style></defs><title>logo</title><path class="cls-1" d="M296,248.88s-.72,10.17-4,18.06c-1.9,4.57-4.64,8.36-8.61,9l-1.81,27.09s-5.42,0-3.61,9c0,0-7.22,3.61-5.42,10.83l-5.42,7.22s0,11.09-6.07,17.48a14.17,14.17,0,0,1-3,2.38s0-5.42-5.42-10.83c0,0,0,1.81-1.81,0h-6.63c-1.81,1.81-1.81,0-1.81,0C237,344.58,237,350,237,350c-9-5.42-9-19.86-9-19.86l-5.42-7.22c1.81-7.22-5.42-10.83-5.42-10.83,1.81-9-3.61-9-3.61-9L211.74,276c-10.83-1.81-12.64-27.09-12.64-27.09-5.42-5.42,0-14.45,0-14.45a7.9,7.9,0,0,0,5.42-7.22c23.47,5.42,36.11-34.31,36.11-34.31,1.81-3.61,6.92-3.61,6.92-3.61s5.13,0,6.93,3.61c0,0,12.64,39.73,36.11,34.31a7.9,7.9,0,0,0,5.42,7.22S301.43,243.46,296,248.88Z" transform="translate(-8.53 -130.11)"/><path class="cls-2" d="M213.55,263.32s-12.64-14.45-12.64-21.67c0,0-1.81-9,9-1.81,0,0,3.61,12.64,5.42,12.64C215.35,252.49,217.16,259.71,213.55,263.32Z" transform="translate(-8.53 -130.11)"/><path class="cls-2" d="M280.7,263.32s12.64-14.45,12.64-21.67c0,0,1.81-9-9-1.81,0,0-3.61,12.64-5.42,12.64C278.89,252.49,277.09,259.71,280.7,263.32Z" transform="translate(-8.53 -130.11)"/><path class="cls-3" d="M205.47,237.66s.1,18.15,5.33,20.45l2.48-7S206.59,245,205.47,237.66Z" transform="translate(-8.53 -130.11)"/><path class="cls-3" d="M288.57,237.71s-.34,18.14-5.59,20.38L280.59,251S287.35,245.06,288.57,237.71Z" transform="translate(-8.53 -130.11)"/><polygon class="cls-3" points="212.21 114.4 214.8 111.81 217.4 117 212.21 114.4"/><polygon class="cls-3" points="266.45 114.4 263.86 111.81 261.26 117 266.45 114.4"/><path class="cls-3" d="M235,271.45l-4.35,30.43,6.52,6.52,4.35,21.74V304.05S232.86,284.49,235,271.45Z" transform="translate(-8.53 -130.11)"/><path class="cls-3" d="M257.07,271.45l4.35,30.43-6.52,6.52-4.35,21.74V304.05S259.24,284.49,257.07,271.45Z" transform="translate(-8.53 -130.11)"/><path class="cls-4" d="M202.71,225.4s-28.89-28.89-32.5-27.09c0,0-25.28-21.67-37.92,27.09,0,0-7.22,19.86-16.25,21.67,0,0-7.22,56-41.53,61.4,0,0-43.34,3.61-65-48.75,0,0,54.17,27.09,77.65-7.22,0,0-1.81-86.68,25.28-101.12l23.47-18.06S181,111.64,240.63,191.1C240.63,191.1,229.8,232.63,202.71,225.4Z" transform="translate(-8.53 -130.11)"/><path class="cls-5" d="M219,220s-72.23-74-88.48-70.42,3.61,39.73,3.61,39.73-21.67,16.25-12.64,30.7c0,0-14.45,39.73-37.92,43.34,0,0,23.47,3.61,30.7-10.83l3.61-5.42s14.45-10.83,16.25-21.67c0,0,9-50.56,39.73-28.89,0,0,36.11,21.67,30.7,28.89C204.52,225.4,215.35,225.4,219,220Z" transform="translate(-8.53 -130.11)"/><path class="cls-6" d="M213.55,216.38s16.25-3.61,18.06-32.5" transform="translate(-8.53 -130.11)"/><path class="cls-6" d="M206.33,211s16.25-3.61,18.06-32.5" transform="translate(-8.53 -130.11)"/><path class="cls-6" d="M199.1,201.93s16.25-3.61,18.06-32.5" transform="translate(-8.53 -130.11)"/><path class="cls-6" d="M191.88,194.71s16.25-3.61,18.06-32.5" transform="translate(-8.53 -130.11)"/><path class="cls-6" d="M184.66,185.68s16.25-3.61,18.06-32.5" transform="translate(-8.53 -130.11)"/><path class="cls-6" d="M175.63,180.26s16.25-3.61,18.06-32.5" transform="translate(-8.53 -130.11)"/><path class="cls-6" d="M166.6,174.84s16.25-3.61,18.06-32.5" transform="translate(-8.53 -130.11)"/><path class="cls-6" d="M157.57,169.43s16.25-3.61,18.06-32.5" transform="translate(-8.53 -130.11)"/><path class="cls-6" d="M150.35,162.2s13.81-3.07,15.35-27.63" transform="translate(-8.53 -130.11)"/><path class="cls-6" d="M144,155.88s8.13-2.61,9-23.47" transform="translate(-8.53 -130.11)"/><path class="cls-6" d="M107,160.4s18.06,30.7,25.28,28.89" transform="translate(-8.53 -130.11)"/><path class="cls-6" d="M99.79,171.23s18.06,30.7,25.28,28.89" transform="translate(-8.53 -130.11)"/><path class="cls-6" d="M96.18,185.68S112.3,211.51,118.75,210" transform="translate(-8.53 -130.11)"/><path class="cls-6" d="M92.56,196.51s14.83,25.83,20.77,24.31" transform="translate(-8.53 -130.11)"/><path class="cls-6" d="M92.56,209.15s11,22,15.35,20.71" transform="translate(-8.53 -130.11)"/><path class="cls-6" d="M89,221.79s11,18.18,15.35,17.11" transform="translate(-8.53 -130.11)"/><path class="cls-7" d="M90.76,292.22s-7.22-18.06-10.83-19.86" transform="translate(-8.53 -130.11)"/><path class="cls-7" d="M83.54,295.83S76.31,277.77,72.7,276" transform="translate(-8.53 -130.11)"/><path class="cls-7" d="M72.7,301.25s-7.22-18.06-10.83-19.86" transform="translate(-8.53 -130.11)"/><path class="cls-7" d="M61.87,299.44S54.64,281.38,51,279.58" transform="translate(-8.53 -130.11)"/><path class="cls-7" d="M51,295.83S43.81,277.77,40.2,276" transform="translate(-8.53 -130.11)"/><path class="cls-4" d="M293,227.21s28.89-28.89,32.5-27.09c0,0,25.28-21.67,37.92,27.09,0,0,7.22,19.86,16.25,21.67,0,0,7.22,56,41.53,61.4,0,0,43.34,3.61,65-48.75,0,0-54.17,27.09-77.65-7.22,0,0,1.81-86.68-25.28-101.12l-23.47-18.06s-45.14-21.67-104.73,57.78C255.08,192.9,265.91,234.43,293,227.21Z" transform="translate(-8.53 -130.11)"/><path class="cls-5" d="M276.75,221.79s72.23-74,88.48-70.42-3.61,39.73-3.61,39.73,21.67,16.25,12.64,30.7c0,0,14.45,39.73,37.92,43.34,0,0-23.47,3.61-30.7-10.83l-3.61-5.42S363.42,238,361.62,227.21c0,0-9-50.56-39.73-28.89,0,0-36.11,21.67-30.7,28.89C291.19,227.21,280.36,227.21,276.75,221.79Z" transform="translate(-8.53 -130.11)"/><path class="cls-6" d="M282.17,218.18s-16.25-3.61-18.06-32.5" transform="translate(-8.53 -130.11)"/><path class="cls-6" d="M289.39,212.76s-16.25-3.61-18.06-32.5" transform="translate(-8.53 -130.11)"/><path class="cls-6" d="M296.61,203.74s-16.25-3.61-18.06-32.5" transform="translate(-8.53 -130.11)"/><path class="cls-6" d="M303.83,196.51s-16.25-3.61-18.06-32.5" transform="translate(-8.53 -130.11)"/><path class="cls-6" d="M311.06,187.48S294.81,183.87,293,155" transform="translate(-8.53 -130.11)"/><path class="cls-6" d="M320.09,182.07s-16.25-3.61-18.06-32.5" transform="translate(-8.53 -130.11)"/><path class="cls-6" d="M329.12,176.65s-16.25-3.61-18.06-32.5" transform="translate(-8.53 -130.11)"/><path class="cls-6" d="M338.14,171.23s-16.25-3.61-18.06-32.5" transform="translate(-8.53 -130.11)"/><path class="cls-6" d="M345.37,164s-13.81-3.07-15.35-27.63" transform="translate(-8.53 -130.11)"/><path class="cls-6" d="M351.69,157.69s-8.13-2.61-9-23.47" transform="translate(-8.53 -130.11)"/><path class="cls-6" d="M388.7,162.2s-18.06,30.7-25.28,28.89" transform="translate(-8.53 -130.11)"/><path class="cls-6" d="M395.93,173s-18.06,30.7-25.28,28.89" transform="translate(-8.53 -130.11)"/><path class="cls-6" d="M399.54,187.48S383.42,213.32,377,211.8" transform="translate(-8.53 -130.11)"/><path class="cls-6" d="M403.15,198.32s-14.83,25.83-20.77,24.31" transform="translate(-8.53 -130.11)"/><path class="cls-6" d="M403.15,211s-11,22-15.35,20.71" transform="translate(-8.53 -130.11)"/><path class="cls-6" d="M406.76,223.6s-11,18.18-15.35,17.11" transform="translate(-8.53 -130.11)"/><path class="cls-7" d="M405,294s7.22-18.06,10.83-19.86" transform="translate(-8.53 -130.11)"/><path class="cls-7" d="M412.18,297.63s7.22-18.06,10.83-19.86" transform="translate(-8.53 -130.11)"/><path class="cls-7" d="M423,303.05s7.22-18.06,10.83-19.86" transform="translate(-8.53 -130.11)"/><path class="cls-7" d="M433.85,301.25s7.22-18.06,10.83-19.86" transform="translate(-8.53 -130.11)"/><path class="cls-7" d="M444.68,297.63s7.22-18.06,10.83-19.86" transform="translate(-8.53 -130.11)"/><path class="cls-8" d="M200,249.78s10.83,19.86,12.64,16.25" transform="translate(-8.53 -130.11)"/><path class="cls-8" d="M293.9,249.78S283.07,269.64,281.26,266" transform="translate(-8.53 -130.11)"/><path class="cls-2" d="M292,266.94c-1.9,4.57-4.64,8.36-8.61,9l-1.81,27.09s-5.42,0-3.61,9c0,0-7.22,3.61-5.42,10.83l-5.42,7.22s0,11.09-6.07,17.48L260.5,341a40.38,40.38,0,0,1,5.42-28.89c9-14.45,7.22-37.92,7.22-37.92l4.51-2.71Z" transform="translate(-8.53 -130.11)"/><path class="cls-2" d="M202,266.94c1.9,4.57,4.64,8.36,8.61,9l1.81,27.09s5.42,0,3.61,9c0,0,7.22,3.61,5.42,10.83l5.42,7.22s0,11.09,6.07,17.48l.56-6.65a40.38,40.38,0,0,0-5.42-28.89c-9-14.45-7.22-37.92-7.22-37.92l-4.51-2.71Z" transform="translate(-8.53 -130.11)"/><path class="cls-9" d="M205.42,229.92s28.89,5.42,37.92-37.92" transform="translate(-8.53 -130.11)"/><path class="cls-9" d="M290.29,231.72s-28.89,5.42-37.92-37.92" transform="translate(-8.53 -130.11)"/></svg>