<svg id="Layer_1" data-name="Layer 1" xmlns="http://www.w3.org/2000/svg" xmlns:xlink="http://www.w3.org/1999/xlink" viewBox="0 0 284.1 473.28"><defs><style>.cls-1{fill:url(#linear-gradient);}.cls-2{fill:url(#linear-gradient-2);}.cls-10,.cls-11,.cls-12,.cls-13,.cls-14,.cls-15,.cls-16,.cls-17,.cls-18,.cls-19,.cls-20,.cls-23,.cls-24,.cls-25,.cls-27,.cls-3,.cls-32,.cls-4,.cls-5,.cls-6,.cls-7,.cls-8,.cls-9{fill:none;stroke-miterlimit:10;}.cls-3{stroke:url(#linear-gradient-3);}.cls-4{stroke:url(#linear-gradient-4);}.cls-5{stroke:url(#linear-gradient-5);}.cls-6{stroke:url(#linear-gradient-6);}.cls-7{stroke:url(#linear-gradient-7);}.cls-8{stroke:url(#linear-gradient-8);}.cls-9{stroke:url(#linear-gradient-9);}.cls-10{stroke:url(#linear-gradient-10);}.cls-11{stroke:url(#linear-gradient-11);}.cls-12{stroke:url(#linear-gradient-12);}.cls-13{stroke:url(#linear-gradient-13);}.cls-14{stroke:url(#linear-gradient-14);}.cls-15{stroke:url(#linear-gradient-15);}.cls-16{stroke:url(#linear-gradient-16);}.cls-17{stroke:url(#linear-gradient-17);}.cls-18{stroke:url(#linear-gradient-18);}.cls-19{stroke:url(#linear-gradient-19);}.cls-20{stroke:url(#linear-gradient-20);}.cls-21{fill:url(#linear-gradient-21);}.cls-22{fill:url(#linear-gradient-22);}.cls-23{stroke:url(#linear-gradient-23);}.cls-24{stroke:url(#linear-gradient-24);}.cls-25{stroke:url(#linear-gradient-25);}.cls-26{fill:url(#linear-gradient-26);}.cls-27{stroke:url(#linear-gradient-27);}.cls-28{fill:url(#linear-gradient-28);}.cls-29{fill:url(#linear-gradient-29);}.cls-30{fill:url(#linear-gradient-30);}.cls-31{fill:#933e03;}.cls-32{stroke:#633002;}.cls-33{fill:#fff;}.cls-34{fill:url(#linear-gradient-31);}.cls-35{fill:url(#linear-gradient-32);}.cls-36{fill:#595a5b;}.cls-37{fill:#393a3a;}</style><linearGradient id="linear-gradient" x1="221.23" y1="5.53" x2="223.55" y2="5.27" gradientUnits="userSpaceOnUse"><stop offset="0" stop-color="#fff"/><stop offset="1"/></linearGradient><linearGradient id="linear-gradient-2" x1="224.61" y1="6.01" x2="227.12" y2="5.72" xlink:href="#linear-gradient"/><linearGradient id="linear-gradient-3" x1="338.87" y1="106.06" x2="348.8" y2="106.06" gradientTransform="translate(-16.88 34.72) rotate(-6.4)" xlink:href="#linear-gradient"/><linearGradient id="linear-gradient-4" x1="338.39" y1="111.2" x2="348.25" y2="111.2" gradientTransform="translate(-16.88 34.72) rotate(-6.4)" xlink:href="#linear-gradient"/><linearGradient id="linear-gradient-5" x1="337.36" y1="117.01" x2="347.22" y2="117.01" gradientTransform="translate(-16.88 34.72) rotate(-6.4)" xlink:href="#linear-gradient"/><linearGradient id="linear-gradient-6" x1="336.34" y1="122.82" x2="346.2" y2="122.82" gradientTransform="translate(-16.88 34.72) rotate(-6.4)" xlink:href="#linear-gradient"/><linearGradient id="linear-gradient-7" x1="335.32" y1="128.62" x2="345.17" y2="128.62" gradientTransform="translate(-16.88 34.72) rotate(-6.4)" xlink:href="#linear-gradient"/><linearGradient id="linear-gradient-8" x1="334.29" y1="134.43" x2="344.15" y2="134.43" gradientTransform="translate(-16.88 34.72) rotate(-6.4)" xlink:href="#linear-gradient"/><linearGradient id="linear-gradient-9" x1="333.91" y1="140.25" x2="343.77" y2="140.25" gradientTransform="translate(-16.88 34.72) rotate(-6.4)" xlink:href="#linear-gradient"/><linearGradient id="linear-gradient-10" x1="332.89" y1="146.06" x2="342.74" y2="146.06" gradientTransform="translate(-16.88 34.72) rotate(-6.4)" xlink:href="#linear-gradient"/><linearGradient id="linear-gradient-11" x1="331.86" y1="151.86" x2="341.72" y2="151.86" gradientTransform="translate(-16.88 34.72) rotate(-6.4)" xlink:href="#linear-gradient"/><linearGradient id="linear-gradient-12" x1="351.95" y1="109.93" x2="361.34" y2="109.93" gradientTransform="translate(-16.88 34.72) rotate(-6.4)" xlink:href="#linear-gradient"/><linearGradient id="linear-gradient-13" x1="350.6" y1="114.49" x2="360.41" y2="114.49" gradientTransform="translate(-16.88 34.72) rotate(-6.4)" xlink:href="#linear-gradient"/><linearGradient id="linear-gradient-14" x1="349.65" y1="120.33" x2="359.46" y2="120.33" gradientTransform="translate(-16.88 34.72) rotate(-6.4)" xlink:href="#linear-gradient"/><linearGradient id="linear-gradient-15" x1="348.7" y1="126.18" x2="358.51" y2="126.18" gradientTransform="translate(-16.88 34.72) rotate(-6.4)" xlink:href="#linear-gradient"/><linearGradient id="linear-gradient-16" x1="347.74" y1="132.03" x2="357.55" y2="132.03" gradientTransform="translate(-16.88 34.72) rotate(-6.4)" xlink:href="#linear-gradient"/><linearGradient id="linear-gradient-17" x1="346.79" y1="137.87" x2="356.6" y2="137.87" gradientTransform="translate(-16.88 34.72) rotate(-6.4)" xlink:href="#linear-gradient"/><linearGradient id="linear-gradient-18" x1="345.22" y1="143.45" x2="355.03" y2="143.45" gradientTransform="translate(-16.88 34.72) rotate(-6.4)" xlink:href="#linear-gradient"/><linearGradient id="linear-gradient-19" x1="344.26" y1="149.3" x2="354.07" y2="149.3" gradientTransform="translate(-16.88 34.72) rotate(-6.4)" xlink:href="#linear-gradient"/><linearGradient id="linear-gradient-20" x1="343.31" y1="155.14" x2="353.12" y2="155.14" gradientTransform="translate(-16.88 34.72) rotate(-6.4)" xlink:href="#linear-gradient"/><linearGradient id="linear-gradient-21" x1="335.85" y1="126.35" x2="348.63" y2="124.92" xlink:href="#linear-gradient"/><linearGradient id="linear-gradient-22" x1="341.41" y1="79.98" x2="348.16" y2="79.22" xlink:href="#linear-gradient"/><linearGradient id="linear-gradient-23" x1="326.93" y1="165.84" x2="353.15" y2="165.84" gradientTransform="translate(-16.88 34.72) rotate(-6.4)" xlink:href="#linear-gradient"/><linearGradient id="linear-gradient-24" x1="330.13" y1="195.79" x2="337.06" y2="195.79" gradientTransform="translate(-139.78 17.01) rotate(-6.4)" xlink:href="#linear-gradient"/><linearGradient id="linear-gradient-25" x1="335.22" y1="194.52" x2="340.46" y2="194.52" gradientTransform="translate(-139.78 17.01) rotate(-6.4)" xlink:href="#linear-gradient"/><linearGradient id="linear-gradient-26" x1="294.92" y1="375.1" x2="321.27" y2="375.1" gradientTransform="translate(-16.88 34.72) rotate(-6.4)" gradientUnits="userSpaceOnUse"><stop offset="0.6"/><stop offset="0.91" stop-color="#fff"/></linearGradient><linearGradient id="linear-gradient-27" x1="297.39" y1="389.28" x2="315.72" y2="389.28" gradientTransform="translate(-16.88 34.72) rotate(-6.4)" gradientUnits="userSpaceOnUse"><stop offset="0.27" stop-color="#fff"/><stop offset="0.98"/></linearGradient><linearGradient id="linear-gradient-28" x1="207.39" y1="211.44" x2="335.24" y2="211.44" gradientTransform="translate(-16.88 34.72) rotate(-6.4)" gradientUnits="userSpaceOnUse"><stop offset="0.82" stop-color="#c69c6d"/><stop offset="0.93" stop-color="#8c6239"/></linearGradient><linearGradient id="linear-gradient-29" x1="316.17" y1="372.08" x2="341.17" y2="372.08" xlink:href="#linear-gradient-28"/><linearGradient id="linear-gradient-30" x1="247.32" y1="311.98" x2="286.43" y2="311.98" xlink:href="#linear-gradient-28"/><linearGradient id="linear-gradient-31" x1="253.71" y1="278.05" x2="393.03" y2="278.05" gradientTransform="translate(-16.88 34.72) rotate(-6.4)" gradientUnits="userSpaceOnUse"><stop offset="0.12"/><stop offset="0.91" stop-color="#fff"/></linearGradient><linearGradient id="linear-gradient-32" x1="95.47" y1="350.71" x2="344.07" y2="350.71" gradientTransform="translate(-16.88 34.72) rotate(-6.4)" gradientUnits="userSpaceOnUse"><stop offset="0.08" stop-color="red"/><stop offset="0.58"/></linearGradient></defs><title>myplaer version 2</title><path d="M342.38,20l-.83,15.49,1.13,2.44-1.2,19.8s-2.44,1.13.28,2.53l-2,35.29s-10.6,4.61-9.47,7l-3.41,61.1.47,4.22-4.72,64.66,26.64-14.1.15-36.79s5.25-6.57,3.84-11.55,2.75-67,2.75-67-2.54-7.41-9.39-7.5l8-27.41-7.13-2.62.28-5.16s3-3.76-.38-3.38l1.3-19,2.34-2,.83-15.49S346,14.47,342.38,20Z" transform="translate(-122.9 -17.71)"/><polygon class="cls-1" points="221.69 3.63 221.4 7.02 223.09 7.17 223.38 3.78 221.69 3.63 221.69 3.63"/><polygon class="cls-2" points="225.29 4.05 224.76 7.41 226.44 7.67 226.97 4.32 225.29 4.05 225.29 4.05"/><path class="cls-3" d="M332.26,103.57c1.69-3.46,5.76-3.89,9.09-.94" transform="translate(-122.9 -17.71)"/><path class="cls-4" d="M332.22,107.8c2-3.17,6.08-3,9.16.41" transform="translate(-122.9 -17.71)"/><path class="cls-5" d="M331.85,113.69c2-3.17,6.08-3,9.16.41" transform="translate(-122.9 -17.71)"/><path class="cls-6" d="M331.47,119.57c2-3.17,6.08-3,9.16.41" transform="translate(-122.9 -17.71)"/><path class="cls-7" d="M331.1,125.46c2-3.17,6.08-3,9.16.41" transform="translate(-122.9 -17.71)"/><path class="cls-8" d="M330.73,131.34c2-3.17,6.08-3,9.16.41" transform="translate(-122.9 -17.71)"/><path class="cls-9" d="M331,137.17c2-3.17,6.08-3,9.16.41" transform="translate(-122.9 -17.71)"/><path class="cls-10" d="M330.63,143.05c2-3.17,6.08-3,9.16.41" transform="translate(-122.9 -17.71)"/><path class="cls-11" d="M330.26,148.94c2-3.17,6.08-3,9.16.41" transform="translate(-122.9 -17.71)"/><path class="cls-12" d="M354.25,106.27c-1.32-3.82-5.38-5.15-9.09-3" transform="translate(-122.9 -17.71)"/><path class="cls-13" d="M353.81,110.47c-1.65-3.59-5.82-4.34-9.32-1.66" transform="translate(-122.9 -17.71)"/><path class="cls-14" d="M353.51,116.39c-1.65-3.59-5.82-4.34-9.32-1.66" transform="translate(-122.9 -17.71)"/><path class="cls-15" d="M353.21,122.31c-1.65-3.59-5.82-4.34-9.32-1.66" transform="translate(-122.9 -17.71)"/><path class="cls-16" d="M352.92,128.23c-1.65-3.59-5.82-4.34-9.32-1.66" transform="translate(-122.9 -17.71)"/><path class="cls-17" d="M352.62,134.14c-1.65-3.59-5.82-4.34-9.32-1.66" transform="translate(-122.9 -17.71)"/><path class="cls-18" d="M351.68,139.86c-1.65-3.59-5.82-4.34-9.32-1.66" transform="translate(-122.9 -17.71)"/><path class="cls-19" d="M351.38,145.77c-1.65-3.59-5.82-4.34-9.32-1.66" transform="translate(-122.9 -17.71)"/><path class="cls-20" d="M351.09,151.69c-1.65-3.59-5.82-4.34-9.32-1.66" transform="translate(-122.9 -17.71)"/><path class="cls-21" d="M343.27,99.87l1.4.09-3.45,51.42-1.4-.09,3.45-51.42m-.93-1.06-3.59,53.42,3.39.23L345.73,99l-3.39-.23Z" transform="translate(-122.9 -17.71)"/><path class="cls-22" d="M345.56,72.55c-.09.92-.2,1.91-.32,2.92l-.49-.18-.66-.24,1.47-2.5m1.37-4.3-4.31,7.32,1.78.66L342.64,91c3-3.76,4.29-22.71,4.29-22.71Z" transform="translate(-122.9 -17.71)"/><path class="cls-23" d="M326.85,163.71s15.57-13.72,25.71.54" transform="translate(-122.9 -17.71)"/><line class="cls-24" x1="214.75" y1="158.47" x2="212.34" y2="190.38"/><line class="cls-25" x1="218.04" y1="157.25" x2="217.22" y2="188.12"/><path class="cls-26" d="M321.49,352.44l-1.84,37s8,2.53,9.49,8.34c0,0,6.28-5,11.54-3.86l.8-46.27S326,354.5,321.49,352.44Z" transform="translate(-122.9 -17.71)"/><path class="cls-27" d="M321.9,386.6s12.85-3.58,18.21,2.23" transform="translate(-122.9 -17.71)"/><path class="cls-28" d="M321.27,220.77s.36-12,2.8-13.14c0,0,8.81-13,4.86-17.65l5.43-12.58-5.07.57-.85-7.6,6.76-.76s2.15-11.36-10.51-2.24c0,0-18.46,26-19.2,34.65,0,0-17.81,16.53-35.83,16,0,0-49.83,5.59-55.64,14.79,0,0,26.57,15.83,22.27,30.85,0,0,28.8-10.07,36.39-18.62l40.43-20.78S321.18,227.62,321.27,220.77Z" transform="translate(-122.9 -17.71)"/><path class="cls-29" d="M343,345.75l-2.59,37.92s22,12.93,25.72,8.23c0,0-2-40.82-11.69-50.85Z" transform="translate(-122.9 -17.71)"/><path class="cls-30" d="M263.27,313.64s13.23-4,16-17.19c0,0-.76-6.76,1.49-9.57,0,0,0-7.7-4.79-4.59,0,0,1.11-13,8.53-15.49,0,0,10.51-5.45,8.73,1.59L281.18,298s-4.76,26.19-9.64,28.44c0,0,18.81,38.08,35.5,26.81l-5.81,9.2S266.88,353.43,263.27,313.64Z" transform="translate(-122.9 -17.71)"/><path class="cls-31" d="M279,278.53s11-8.93,10.69-11.46C289.69,267.07,290.92,278,279,278.53Z" transform="translate(-122.9 -17.71)"/><path class="cls-32" d="M312.63,208.49s-2.62,7.13.95,8.45c0,0,.66,5.91,3.2,5.63" transform="translate(-122.9 -17.71)"/><path class="cls-33" d="M304.68,221.84l6-3.72A26.43,26.43,0,0,1,304.68,221.84Z" transform="translate(-122.9 -17.71)"/><path class="cls-31" d="M313.85,215.62,300.25,224c9.94-2.83,13.6-8.37,13.6-8.37Z" transform="translate(-122.9 -17.71)"/><line class="cls-32" x1="195.15" y1="166.65" x2="201.89" y2="158.2"/><path class="cls-34" d="M271.07,326s8.63-7,9.64-28.44c0,0,9.74-19.9,12.17-28.73,0,0,17.25-21.6,22.5-20.48,0,0,11.44-4.7,5.53-11.74s-19.42,2.18-19.42,2.18,14.15-18.69,24.48-18.14,14,2.71,14,2.71-28-13.11-46.54,12.06c0,0,33.74-50,67.08-19.49,0,0-1.52-21.21-16.63-18.66,0,0,27.59-5.66,29.49,18.93,0,0,17.39,25.42,12,45.69,0,0,32.57.63,17.88,52.72,0,0-1.06-24.68-24.22-10.11,0,0-3.17,25.15-25.87,36.25,0,0-15.1,10.24-31.15,12,0,0-7.42-5.15-15.2,1.7C306.76,354.52,290.72,364,271.07,326Z" transform="translate(-122.9 -17.71)"/><path class="cls-35" d="M202.66,234.49s32.65-6.23,33.16,28.78c0,0-6.46,11-.64,17.17,0,0,22.36,24,29.68,20.62l4.51,9.76-6.57,2.45s4.64,41.38,37.12,48.86l7.78-6.86,3.2,5.63L308.28,368s8.45,6.75,5.56,19c0,0,11.36,2.15,14.84,10.31,0,0,10.22-8,12.67-1.42L340,384.14s22.91,13.68,26.57,8.14c0,0,11.56,19.23-3,26.84,0,0-3.36,15.77-15.09,17.94,0,0,.69,36.69-76.64,33.39,0,0-20.27,2.27-31.05,12.89,0,0-25.42,9.69-41.94,7.27l-45.44-16.29s-53.89-23-18.49-104c0,0,29-46,28.66-57.09s-6.68-21.48,1.28-34.35L182,263.32S170.12,257,202.66,234.49Z" transform="translate(-122.9 -17.71)"/><path class="cls-36" d="M162.15,303.09s-27,.54-22.55,32.53c0,0-3.3,10.71.67,26,0,0,21.92-36.36,22.49-43.65C162.76,318,165.12,309.53,162.15,303.09Z" transform="translate(-122.9 -17.71)"/><path class="cls-37" d="M141.29,335.44s4.87-10,10.4-14l7.59-8.55S150.46,310.47,141.29,335.44Z" transform="translate(-122.9 -17.71)"/></svg>